<svg width="24" height="24" viewBox="0 0 24 24" fill="none" xmlns="http://www.w3.org/2000/svg">
<path d="M11.999 1.99292C6.48502 1.99392 1.99902 6.47992 1.99902 11.9939C1.99902 17.5079 6.48502 21.9939 12 21.9939C17.513 21.9939 21.999 17.5079 22 11.9939C22 6.47992 17.514 1.99392 11.999 1.99292ZM12 19.9939C7.58802 19.9939 3.99902 16.4049 3.99902 11.9939C3.99902 7.58292 7.58802 3.99392 11.999 3.99292C16.411 3.99392 20 7.58292 20 11.9939C19.999 16.4049 16.41 19.9939 12 19.9939Z" fill="white"/>
<path d="M12 10.994H8V12.994H12V16L16.005 11.995L12 7.99097V10.994Z" fill="white"/>
</svg>
