<svg width="13" height="24" viewBox="0 0 13 24" fill="none" xmlns="http://www.w3.org/2000/svg">
<path d="M0.292893 23.5066C-0.0976311 23.1161 -0.097631 22.4829 0.292893 22.0924L11.1887 11.1965C11.5793 10.806 12.2124 10.806 12.603 11.1965C12.9935 11.587 12.9935 12.2202 12.603 12.6107L1.70711 23.5066C1.31658 23.8971 0.683417 23.8971 0.292893 23.5066Z" fill="white"/>
<path d="M12.6072 12.6072C12.9977 12.2166 12.9977 11.5835 12.6072 11.193L1.70714 0.292893C1.31661 -0.0976317 0.683449 -0.0976304 0.292924 0.292894C-0.0975999 0.683418 -0.0975998 1.31658 0.292924 1.70711L11.193 12.6072C11.5835 12.9977 12.2167 12.9977 12.6072 12.6072Z" fill="white"/>
</svg>
