<svg width="48" height="40" viewBox="0 0 48 40" fill="none" xmlns="http://www.w3.org/2000/svg">
<path d="M20.739 0C12.2332 0.604136 0.00672 1.97681 0 18.8148V40H18.9802V17.3334H12.6778C12.2786 11.281 17.2092 9.71814 22.571 8.51848L20.739 0ZM46.1679 0C37.6622 0.604136 25.4357 1.97685 25.429 18.8148V40H44.4092V17.3334H38.1069C37.7076 11.281 42.6382 9.71814 48 8.51848L46.1679 0Z" fill="#F7F9FB"/>
<path d="M20.739 0C12.2332 0.604136 0.00672 1.97681 0 18.8148V40H18.9802V17.3334H12.6778C12.2786 11.281 17.2092 9.71814 22.571 8.51848L20.739 0ZM46.1679 0C37.6622 0.604136 25.4357 1.97685 25.429 18.8148V40H44.4092V17.3334H38.1069C37.7076 11.281 42.6382 9.71814 48 8.51848L46.1679 0Z" fill="#666F80" fill-opacity="0.1"/>
</svg>
